<mxfile host="app.diagrams.net" modified="2024-02-13T12:59:42.611Z" agent="Mozilla/5.0 (Windows NT 10.0; Win64; x64) AppleWebKit/537.36 (KHTML, like Gecko) Chrome/121.0.0.0 Safari/537.36" etag="K2s_Xw0T4DZoy96B4323" version="23.1.3" type="device">
  <diagram id="onA2VM0ke9PM5qHIyAdz" name="Страница — 1">
    <mxGraphModel dx="4274" dy="933" grid="1" gridSize="10" guides="1" tooltips="1" connect="1" arrows="1" fold="1" page="1" pageScale="1" pageWidth="827" pageHeight="1169" math="0" shadow="0">
      <root>
        <mxCell id="0" />
        <mxCell id="1" parent="0" />
        <mxCell id="1lmrmKGu_N5sYzmFphA3-192" value="" style="endArrow=classic;html=1;rounded=0;exitX=0.798;exitY=0.996;exitDx=0;exitDy=0;entryX=0;entryY=0.5;entryDx=0;entryDy=0;exitPerimeter=0;" parent="1" source="1lmrmKGu_N5sYzmFphA3-1" target="1lmrmKGu_N5sYzmFphA3-159" edge="1">
          <mxGeometry width="50" height="50" relative="1" as="geometry">
            <mxPoint x="-27" y="1678.5" as="sourcePoint" />
            <mxPoint x="-720" y="1571" as="targetPoint" />
            <Array as="points">
              <mxPoint x="-1214" y="1320" />
            </Array>
          </mxGeometry>
        </mxCell>
        <mxCell id="1lmrmKGu_N5sYzmFphA3-150" value="Отправка запроса на восстановление пароля" style="rounded=0;whiteSpace=wrap;html=1;" parent="1" vertex="1">
          <mxGeometry x="-1040" y="680" width="250" height="70" as="geometry" />
        </mxCell>
        <mxCell id="1lmrmKGu_N5sYzmFphA3-169" value="" style="ellipse;fillColor=strokeColor;html=1;" parent="1" vertex="1">
          <mxGeometry x="-1830.0000000000002" y="1165.5" width="30" height="30" as="geometry" />
        </mxCell>
        <mxCell id="1lmrmKGu_N5sYzmFphA3-170" value="" style="endArrow=classic;html=1;rounded=0;exitX=1;exitY=0.5;exitDx=0;exitDy=0;" parent="1" source="6Y3TLVguq3Cx2lFlfiIS-67" edge="1" target="1lmrmKGu_N5sYzmFphA3-1">
          <mxGeometry width="50" height="50" relative="1" as="geometry">
            <mxPoint x="-1600" y="1165.5" as="sourcePoint" />
            <mxPoint x="-1370" y="1181" as="targetPoint" />
          </mxGeometry>
        </mxCell>
        <mxCell id="1lmrmKGu_N5sYzmFphA3-175" value="" style="endArrow=classic;html=1;rounded=0;exitX=0.802;exitY=0.021;exitDx=0;exitDy=0;entryX=0;entryY=0.5;entryDx=0;entryDy=0;exitPerimeter=0;" parent="1" source="1lmrmKGu_N5sYzmFphA3-1" target="1lmrmKGu_N5sYzmFphA3-139" edge="1">
          <mxGeometry width="50" height="50" relative="1" as="geometry">
            <mxPoint x="-488.0000000000001" y="1622" as="sourcePoint" />
            <mxPoint x="-720" y="960" as="targetPoint" />
            <Array as="points">
              <mxPoint x="-1214" y="1065" />
            </Array>
          </mxGeometry>
        </mxCell>
        <mxCell id="1lmrmKGu_N5sYzmFphA3-179" value="" style="endArrow=classic;html=1;rounded=0;exitX=0.102;exitY=-0.02;exitDx=0;exitDy=0;exitPerimeter=0;entryX=0.25;entryY=1;entryDx=0;entryDy=0;" parent="1" source="6Y3TLVguq3Cx2lFlfiIS-25" edge="1" target="1lmrmKGu_N5sYzmFphA3-150">
          <mxGeometry width="50" height="50" relative="1" as="geometry">
            <mxPoint x="-487" y="500" as="sourcePoint" />
            <mxPoint x="40" y="400" as="targetPoint" />
            <Array as="points">
              <mxPoint x="-1120" y="820" />
              <mxPoint x="-977" y="820" />
            </Array>
          </mxGeometry>
        </mxCell>
        <mxCell id="1lmrmKGu_N5sYzmFphA3-180" value="Нажата кнопка &quot;Восстановление пароля&quot;" style="text;html=1;strokeColor=none;fillColor=none;align=center;verticalAlign=middle;whiteSpace=wrap;rounded=0;" parent="1" vertex="1">
          <mxGeometry x="-1111" y="900" width="112" height="30" as="geometry" />
        </mxCell>
        <mxCell id="1lmrmKGu_N5sYzmFphA3-182" value="Предупреждение о сообщении на почте" style="rounded=0;whiteSpace=wrap;html=1;" parent="1" vertex="1">
          <mxGeometry x="-1070" y="490" width="225" height="50" as="geometry" />
        </mxCell>
        <mxCell id="1lmrmKGu_N5sYzmFphA3-193" value="Нажата кнопка &quot;Регистрация&quot;" style="text;html=1;strokeColor=none;fillColor=none;align=center;verticalAlign=middle;whiteSpace=wrap;rounded=0;" parent="1" vertex="1">
          <mxGeometry x="-1310" y="1240" width="112" height="30" as="geometry" />
        </mxCell>
        <mxCell id="1lmrmKGu_N5sYzmFphA3-195" value="Нажата &quot;Завершить регистрацию&quot;" style="text;html=1;strokeColor=none;fillColor=none;align=center;verticalAlign=middle;whiteSpace=wrap;rounded=0;" parent="1" vertex="1">
          <mxGeometry x="-999" y="1334.8600000000001" width="112" height="30" as="geometry" />
        </mxCell>
        <mxCell id="1lmrmKGu_N5sYzmFphA3-202" value="" style="endArrow=classic;html=1;rounded=0;exitX=1;exitY=0.5;exitDx=0;exitDy=0;entryX=0;entryY=0.5;entryDx=0;entryDy=0;entryPerimeter=0;" parent="1" source="1lmrmKGu_N5sYzmFphA3-159" target="6Y3TLVguq3Cx2lFlfiIS-4" edge="1">
          <mxGeometry width="50" height="50" relative="1" as="geometry">
            <mxPoint x="-200" y="1569.25" as="sourcePoint" />
            <mxPoint x="-10" y="1569" as="targetPoint" />
          </mxGeometry>
        </mxCell>
        <mxCell id="1lmrmKGu_N5sYzmFphA3-204" value="Нажата кнопка &quot;Вход в систему&quot;" style="text;html=1;strokeColor=none;fillColor=none;align=center;verticalAlign=middle;whiteSpace=wrap;rounded=0;" parent="1" vertex="1">
          <mxGeometry x="-1140" y="1240" width="112" height="30" as="geometry" />
        </mxCell>
        <mxCell id="1lmrmKGu_N5sYzmFphA3-577" value="Нажата кнопка &quot;Вход в систему&quot;" style="text;html=1;strokeColor=none;fillColor=none;align=center;verticalAlign=middle;whiteSpace=wrap;rounded=0;" parent="1" vertex="1">
          <mxGeometry x="-1310" y="1120" width="112" height="30" as="geometry" />
        </mxCell>
        <mxCell id="Fpg0scVaTkVkrr4jqa7s-5" value="" style="endArrow=classic;html=1;rounded=0;entryX=0.75;entryY=0;entryDx=0;entryDy=0;exitX=0.75;exitY=1;exitDx=0;exitDy=0;" parent="1" edge="1" target="1lmrmKGu_N5sYzmFphA3-159" source="1lmrmKGu_N5sYzmFphA3-139">
          <mxGeometry width="50" height="50" relative="1" as="geometry">
            <mxPoint x="-1028" y="1090" as="sourcePoint" />
            <mxPoint x="-1028" y="1440" as="targetPoint" />
          </mxGeometry>
        </mxCell>
        <mxCell id="Fpg0scVaTkVkrr4jqa7s-6" value="Нажата кнопка &quot;Регистрация&quot;" style="text;html=1;strokeColor=none;fillColor=none;align=center;verticalAlign=middle;whiteSpace=wrap;rounded=0;" parent="1" vertex="1">
          <mxGeometry x="-1070" y="1005" width="112" height="30" as="geometry" />
        </mxCell>
        <mxCell id="Fpg0scVaTkVkrr4jqa7s-15" value="Нажата &quot;Выход из системы&quot;" style="text;html=1;strokeColor=none;fillColor=none;align=center;verticalAlign=middle;whiteSpace=wrap;rounded=0;" parent="1" vertex="1">
          <mxGeometry x="-670" y="1220" width="112" height="30" as="geometry" />
        </mxCell>
        <mxCell id="Fpg0scVaTkVkrr4jqa7s-26" value="Нажата кнопка &quot;Вход в систему&quot;" style="text;html=1;strokeColor=none;fillColor=none;align=center;verticalAlign=middle;whiteSpace=wrap;rounded=0;" parent="1" vertex="1">
          <mxGeometry x="-782" y="680" width="112" height="30" as="geometry" />
        </mxCell>
        <mxCell id="6Y3TLVguq3Cx2lFlfiIS-4" value="" style="strokeWidth=2;html=1;shape=mxgraph.flowchart.decision;whiteSpace=wrap;" parent="1" vertex="1">
          <mxGeometry x="-887" y="1304.8600000000001" width="60" height="30" as="geometry" />
        </mxCell>
        <mxCell id="6Y3TLVguq3Cx2lFlfiIS-5" value="" style="endArrow=classic;html=1;rounded=0;exitX=0.5;exitY=0;exitDx=0;exitDy=0;exitPerimeter=0;entryX=0;entryY=0.5;entryDx=0;entryDy=0;" parent="1" source="6Y3TLVguq3Cx2lFlfiIS-4" target="Fpg0scVaTkVkrr4jqa7s-8" edge="1">
          <mxGeometry width="50" height="50" relative="1" as="geometry">
            <mxPoint x="80" y="1563.75" as="sourcePoint" />
            <mxPoint x="160" y="1480" as="targetPoint" />
            <Array as="points">
              <mxPoint x="-857" y="1205" />
            </Array>
          </mxGeometry>
        </mxCell>
        <mxCell id="6Y3TLVguq3Cx2lFlfiIS-6" value="Аккаунт с такой почтой уже существует" style="text;html=1;strokeColor=none;fillColor=none;align=center;verticalAlign=middle;whiteSpace=wrap;rounded=0;" parent="1" vertex="1">
          <mxGeometry x="-860" y="1385" width="112" height="50" as="geometry" />
        </mxCell>
        <mxCell id="6Y3TLVguq3Cx2lFlfiIS-7" value="" style="endArrow=classic;html=1;rounded=0;exitX=0.5;exitY=1;exitDx=0;exitDy=0;exitPerimeter=0;entryX=1;entryY=0.5;entryDx=0;entryDy=0;" parent="1" source="6Y3TLVguq3Cx2lFlfiIS-4" edge="1" target="6Y3TLVguq3Cx2lFlfiIS-13">
          <mxGeometry width="50" height="50" relative="1" as="geometry">
            <mxPoint x="15.349999999999547" y="1630" as="sourcePoint" />
            <mxPoint x="-255.00500000000002" y="1815" as="targetPoint" />
            <Array as="points">
              <mxPoint x="-857" y="1465" />
            </Array>
          </mxGeometry>
        </mxCell>
        <mxCell id="6Y3TLVguq3Cx2lFlfiIS-8" value="[else]" style="text;html=1;strokeColor=none;fillColor=none;align=center;verticalAlign=middle;whiteSpace=wrap;rounded=0;" parent="1" vertex="1">
          <mxGeometry x="-930" y="1240" width="112" height="30" as="geometry" />
        </mxCell>
        <mxCell id="6Y3TLVguq3Cx2lFlfiIS-20" value="Нажата &quot;Завершить регистрацию&quot;" style="text;html=1;strokeColor=none;fillColor=none;align=center;verticalAlign=middle;whiteSpace=wrap;rounded=0;" parent="1" vertex="1">
          <mxGeometry x="-878" y="1490" width="112" height="30" as="geometry" />
        </mxCell>
        <mxCell id="6Y3TLVguq3Cx2lFlfiIS-21" value="" style="endArrow=classic;html=1;rounded=0;entryX=1;entryY=0.5;entryDx=0;entryDy=0;entryPerimeter=0;exitX=1;exitY=0.75;exitDx=0;exitDy=0;" parent="1" target="6Y3TLVguq3Cx2lFlfiIS-4" edge="1" source="6Y3TLVguq3Cx2lFlfiIS-13">
          <mxGeometry width="50" height="50" relative="1" as="geometry">
            <mxPoint x="-255" y="1937.23" as="sourcePoint" />
            <mxPoint x="50" y="1560" as="targetPoint" />
            <Array as="points">
              <mxPoint x="-760" y="1480" />
              <mxPoint x="-760" y="1320" />
            </Array>
          </mxGeometry>
        </mxCell>
        <mxCell id="6Y3TLVguq3Cx2lFlfiIS-22" value="Нажата кнопка &quot;Вход в систему&quot;" style="text;html=1;strokeColor=none;fillColor=none;align=center;verticalAlign=middle;whiteSpace=wrap;rounded=0;" parent="1" vertex="1">
          <mxGeometry x="-1114" y="1395" width="112" height="30" as="geometry" />
        </mxCell>
        <mxCell id="6Y3TLVguq3Cx2lFlfiIS-23" value="" style="endArrow=classic;html=1;rounded=0;entryX=0;entryY=0.75;entryDx=0;entryDy=0;jumpStyle=arc;jumpSize=17;exitX=0.316;exitY=0.083;exitDx=0;exitDy=0;exitPerimeter=0;" parent="1" source="6Y3TLVguq3Cx2lFlfiIS-13" target="1lmrmKGu_N5sYzmFphA3-139" edge="1">
          <mxGeometry width="50" height="50" relative="1" as="geometry">
            <mxPoint x="-839.23" y="1921.04" as="sourcePoint" />
            <mxPoint x="-850" y="1070" as="targetPoint" />
            <Array as="points">
              <mxPoint x="-1120" y="1400" />
              <mxPoint x="-1170" y="1400" />
              <mxPoint x="-1170" y="1078" />
            </Array>
          </mxGeometry>
        </mxCell>
        <mxCell id="1lmrmKGu_N5sYzmFphA3-139" value="Вход в систему" style="rounded=0;whiteSpace=wrap;html=1;movable=1;resizable=1;rotatable=1;deletable=1;editable=1;locked=0;connectable=1;container=0;" parent="1" vertex="1">
          <mxGeometry x="-1140" y="1040" width="138" height="50" as="geometry" />
        </mxCell>
        <mxCell id="1lmrmKGu_N5sYzmFphA3-205" value="" style="endArrow=classic;html=1;rounded=0;exitX=0.75;exitY=0;exitDx=0;exitDy=0;" parent="1" edge="1">
          <mxGeometry width="50" height="50" relative="1" as="geometry">
            <mxPoint x="-1129.23" y="1290" as="sourcePoint" />
            <mxPoint x="-1130" y="1090" as="targetPoint" />
          </mxGeometry>
        </mxCell>
        <mxCell id="6Y3TLVguq3Cx2lFlfiIS-25" value="Вход в систему с неверными данными" style="rounded=0;whiteSpace=wrap;html=1;movable=1;resizable=1;rotatable=1;deletable=1;editable=1;locked=0;connectable=1;container=0;" parent="1" vertex="1">
          <mxGeometry x="-1140" y="940" width="200" height="60" as="geometry" />
        </mxCell>
        <mxCell id="6Y3TLVguq3Cx2lFlfiIS-48" value="" style="endArrow=classic;html=1;rounded=0;exitX=0.897;exitY=1.017;exitDx=0;exitDy=0;exitPerimeter=0;jumpStyle=none;" parent="1" source="6Y3TLVguq3Cx2lFlfiIS-25" edge="1">
          <mxGeometry width="50" height="50" relative="1" as="geometry">
            <mxPoint x="-102" y="700" as="sourcePoint" />
            <mxPoint x="-1000" y="1290" as="targetPoint" />
            <Array as="points">
              <mxPoint x="-961" y="1210" />
              <mxPoint x="-1000" y="1210" />
            </Array>
          </mxGeometry>
        </mxCell>
        <mxCell id="6Y3TLVguq3Cx2lFlfiIS-49" value="Нажата кнопка &quot;Регистрация&quot;" style="text;html=1;strokeColor=none;fillColor=none;align=center;verticalAlign=middle;whiteSpace=wrap;rounded=0;" parent="1" vertex="1">
          <mxGeometry x="-1140" y="1100" width="112" height="30" as="geometry" />
        </mxCell>
        <mxCell id="6Y3TLVguq3Cx2lFlfiIS-51" value="Нажата &quot;Вход&quot;" style="text;html=1;strokeColor=none;fillColor=none;align=center;verticalAlign=middle;whiteSpace=wrap;rounded=0;" parent="1" vertex="1">
          <mxGeometry x="-950" y="1040" width="112" height="30" as="geometry" />
        </mxCell>
        <mxCell id="6Y3TLVguq3Cx2lFlfiIS-52" value="" style="endArrow=classic;html=1;rounded=0;exitX=1;exitY=0.5;exitDx=0;exitDy=0;entryX=0.5;entryY=1;entryDx=0;entryDy=0;entryPerimeter=0;jumpStyle=arc;jumpSize=17;" parent="1" target="6Y3TLVguq3Cx2lFlfiIS-53" edge="1" source="1lmrmKGu_N5sYzmFphA3-139">
          <mxGeometry width="50" height="50" relative="1" as="geometry">
            <mxPoint x="-255" y="950" as="sourcePoint" />
            <mxPoint x="125" y="825.25" as="targetPoint" />
            <Array as="points">
              <mxPoint x="-740" y="1065" />
            </Array>
          </mxGeometry>
        </mxCell>
        <mxCell id="6Y3TLVguq3Cx2lFlfiIS-53" value="" style="strokeWidth=2;html=1;shape=mxgraph.flowchart.decision;whiteSpace=wrap;" parent="1" vertex="1">
          <mxGeometry x="-770" y="990" width="60" height="30" as="geometry" />
        </mxCell>
        <mxCell id="6Y3TLVguq3Cx2lFlfiIS-54" value="Нажата &quot;Вход&quot;" style="text;html=1;strokeColor=none;fillColor=none;align=center;verticalAlign=middle;whiteSpace=wrap;rounded=0;" parent="1" vertex="1">
          <mxGeometry x="-940" y="960" width="112" height="30" as="geometry" />
        </mxCell>
        <mxCell id="6Y3TLVguq3Cx2lFlfiIS-55" value="" style="endArrow=classic;html=1;rounded=0;exitX=1;exitY=0.75;exitDx=0;exitDy=0;entryX=0;entryY=0.5;entryDx=0;entryDy=0;entryPerimeter=0;jumpStyle=arc;jumpSize=17;" parent="1" target="6Y3TLVguq3Cx2lFlfiIS-53" edge="1" source="6Y3TLVguq3Cx2lFlfiIS-25">
          <mxGeometry width="50" height="50" relative="1" as="geometry">
            <mxPoint x="-255" y="689" as="sourcePoint" />
            <mxPoint x="105" y="580" as="targetPoint" />
            <Array as="points">
              <mxPoint x="-830" y="985" />
              <mxPoint x="-830" y="1005" />
            </Array>
          </mxGeometry>
        </mxCell>
        <mxCell id="6Y3TLVguq3Cx2lFlfiIS-56" value="Аккаунт с такой почтой не существует, или неверный пароль" style="text;html=1;strokeColor=none;fillColor=none;align=center;verticalAlign=middle;whiteSpace=wrap;rounded=0;" parent="1" vertex="1">
          <mxGeometry x="-740" y="920" width="112" height="60" as="geometry" />
        </mxCell>
        <mxCell id="6Y3TLVguq3Cx2lFlfiIS-57" value="" style="endArrow=classic;html=1;rounded=0;exitX=0.5;exitY=0;exitDx=0;exitDy=0;exitPerimeter=0;entryX=1;entryY=0.25;entryDx=0;entryDy=0;" parent="1" source="6Y3TLVguq3Cx2lFlfiIS-53" target="6Y3TLVguq3Cx2lFlfiIS-25" edge="1">
          <mxGeometry width="50" height="50" relative="1" as="geometry">
            <mxPoint x="37.5" y="365" as="sourcePoint" />
            <mxPoint x="-187.50500000000002" y="595" as="targetPoint" />
            <Array as="points">
              <mxPoint x="-740" y="955" />
            </Array>
          </mxGeometry>
        </mxCell>
        <mxCell id="6Y3TLVguq3Cx2lFlfiIS-58" value="" style="endArrow=classic;html=1;rounded=0;exitX=1;exitY=0.5;exitDx=0;exitDy=0;exitPerimeter=0;entryX=0.58;entryY=0.02;entryDx=0;entryDy=0;entryPerimeter=0;" parent="1" source="6Y3TLVguq3Cx2lFlfiIS-53" edge="1" target="Fpg0scVaTkVkrr4jqa7s-8">
          <mxGeometry width="50" height="50" relative="1" as="geometry">
            <mxPoint x="596" y="1035" as="sourcePoint" />
            <mxPoint x="440" y="1350" as="targetPoint" />
            <Array as="points">
              <mxPoint x="-412" y="1005" />
            </Array>
          </mxGeometry>
        </mxCell>
        <mxCell id="6Y3TLVguq3Cx2lFlfiIS-59" value="[else]" style="text;html=1;strokeColor=none;fillColor=none;align=center;verticalAlign=middle;whiteSpace=wrap;rounded=0;" parent="1" vertex="1">
          <mxGeometry x="-700" y="1010" width="38" height="20" as="geometry" />
        </mxCell>
        <mxCell id="6Y3TLVguq3Cx2lFlfiIS-60" value="" style="endArrow=classic;html=1;rounded=0;exitX=0;exitY=0.25;exitDx=0;exitDy=0;entryX=-0.002;entryY=0.689;entryDx=0;entryDy=0;entryPerimeter=0;" parent="1" source="1lmrmKGu_N5sYzmFphA3-139" target="1lmrmKGu_N5sYzmFphA3-150" edge="1">
          <mxGeometry width="50" height="50" relative="1" as="geometry">
            <mxPoint x="-677.5" y="390" as="sourcePoint" />
            <mxPoint x="-80" y="330" as="targetPoint" />
            <Array as="points">
              <mxPoint x="-1160" y="1053" />
              <mxPoint x="-1160" y="730" />
            </Array>
          </mxGeometry>
        </mxCell>
        <mxCell id="6Y3TLVguq3Cx2lFlfiIS-61" value="Нажата кнопка &quot;Восстановление пароля&quot;" style="text;html=1;strokeColor=none;fillColor=none;align=center;verticalAlign=middle;whiteSpace=wrap;rounded=0;" parent="1" vertex="1">
          <mxGeometry x="-1280" y="1012.25" width="112" height="30" as="geometry" />
        </mxCell>
        <mxCell id="6Y3TLVguq3Cx2lFlfiIS-62" value="" style="endArrow=classic;html=1;rounded=0;exitX=1;exitY=0.5;exitDx=0;exitDy=0;entryX=1.001;entryY=0.805;entryDx=0;entryDy=0;entryPerimeter=0;jumpStyle=arc;jumpSize=17;" parent="1" source="1lmrmKGu_N5sYzmFphA3-150" target="1lmrmKGu_N5sYzmFphA3-139" edge="1">
          <mxGeometry width="50" height="50" relative="1" as="geometry">
            <mxPoint x="250" y="571.5" as="sourcePoint" />
            <mxPoint x="555" y="1095.5" as="targetPoint" />
            <Array as="points">
              <mxPoint x="-540" y="715" />
              <mxPoint x="-540" y="1080" />
            </Array>
          </mxGeometry>
        </mxCell>
        <mxCell id="6Y3TLVguq3Cx2lFlfiIS-63" value="" style="endArrow=classic;html=1;rounded=0;exitX=0.326;exitY=0.014;exitDx=0;exitDy=0;jumpStyle=arc;jumpSize=17;exitPerimeter=0;entryX=0.5;entryY=1;entryDx=0;entryDy=0;" parent="1" source="1lmrmKGu_N5sYzmFphA3-150" edge="1" target="1lmrmKGu_N5sYzmFphA3-182">
          <mxGeometry width="50" height="50" relative="1" as="geometry">
            <mxPoint x="-207.5" y="191" as="sourcePoint" />
            <mxPoint x="-400" y="205" as="targetPoint" />
            <Array as="points" />
          </mxGeometry>
        </mxCell>
        <mxCell id="6Y3TLVguq3Cx2lFlfiIS-64" value="Нажата кнопка &quot;Сбросить пароль&quot;" style="text;html=1;strokeColor=none;fillColor=none;align=center;verticalAlign=middle;whiteSpace=wrap;rounded=0;" parent="1" vertex="1">
          <mxGeometry x="-939" y="640" width="112" height="30" as="geometry" />
        </mxCell>
        <mxCell id="6Y3TLVguq3Cx2lFlfiIS-65" value="" style="endArrow=classic;html=1;rounded=0;exitX=0;exitY=0.5;exitDx=0;exitDy=0;jumpStyle=arc;jumpSize=17;entryX=0.291;entryY=-0.007;entryDx=0;entryDy=0;entryPerimeter=0;" parent="1" target="1lmrmKGu_N5sYzmFphA3-1" edge="1" source="1lmrmKGu_N5sYzmFphA3-182">
          <mxGeometry width="50" height="50" relative="1" as="geometry">
            <mxPoint x="-865" y="180" as="sourcePoint" />
            <mxPoint x="-1185" y="180" as="targetPoint" />
            <Array as="points">
              <mxPoint x="-1301" y="515" />
            </Array>
          </mxGeometry>
        </mxCell>
        <mxCell id="6Y3TLVguq3Cx2lFlfiIS-66" value="Нажата кнопка &quot;На главную&quot;" style="text;html=1;strokeColor=none;fillColor=none;align=center;verticalAlign=middle;whiteSpace=wrap;rounded=0;" parent="1" vertex="1">
          <mxGeometry x="-1190" y="470" width="112" height="30" as="geometry" />
        </mxCell>
        <mxCell id="6Y3TLVguq3Cx2lFlfiIS-68" value="" style="endArrow=classic;html=1;rounded=0;entryX=0;entryY=0.5;entryDx=0;entryDy=0;entryPerimeter=0;exitX=1;exitY=0.5;exitDx=0;exitDy=0;" parent="1" source="1lmrmKGu_N5sYzmFphA3-169" target="6Y3TLVguq3Cx2lFlfiIS-67" edge="1">
          <mxGeometry width="50" height="50" relative="1" as="geometry">
            <mxPoint x="-1800" y="1181" as="sourcePoint" />
            <mxPoint x="-1369" y="1178" as="targetPoint" />
          </mxGeometry>
        </mxCell>
        <mxCell id="6Y3TLVguq3Cx2lFlfiIS-67" value="" style="strokeWidth=2;html=1;shape=mxgraph.flowchart.decision;whiteSpace=wrap;" parent="1" vertex="1">
          <mxGeometry x="-1570" y="1165.5" width="60" height="30" as="geometry" />
        </mxCell>
        <mxCell id="6Y3TLVguq3Cx2lFlfiIS-69" value="[else]" style="text;html=1;align=center;verticalAlign=middle;whiteSpace=wrap;rounded=0;" parent="1" vertex="1">
          <mxGeometry x="-1480" y="1150" width="60" height="30" as="geometry" />
        </mxCell>
        <mxCell id="6Y3TLVguq3Cx2lFlfiIS-70" value="" style="endArrow=classic;html=1;rounded=0;exitX=0.5;exitY=1;exitDx=0;exitDy=0;exitPerimeter=0;entryX=0.25;entryY=1;entryDx=0;entryDy=0;" parent="1" source="6Y3TLVguq3Cx2lFlfiIS-67" edge="1" target="Fpg0scVaTkVkrr4jqa7s-8">
          <mxGeometry width="50" height="50" relative="1" as="geometry">
            <mxPoint x="-1560" y="1300" as="sourcePoint" />
            <mxPoint x="640" y="1610" as="targetPoint" />
            <Array as="points">
              <mxPoint x="-1540" y="1650" />
              <mxPoint x="-474" y="1650" />
            </Array>
          </mxGeometry>
        </mxCell>
        <mxCell id="6Y3TLVguq3Cx2lFlfiIS-71" value="[роль = Авторизированный пользователь веб-сайта]" style="text;html=1;strokeColor=none;fillColor=none;align=center;verticalAlign=middle;whiteSpace=wrap;rounded=0;" parent="1" vertex="1">
          <mxGeometry x="-1840" y="1260" width="312" height="30" as="geometry" />
        </mxCell>
        <mxCell id="6Y3TLVguq3Cx2lFlfiIS-73" value="" style="endArrow=classic;html=1;rounded=0;exitX=0.5;exitY=0;exitDx=0;exitDy=0;exitPerimeter=0;entryX=0.071;entryY=0.997;entryDx=0;entryDy=0;entryPerimeter=0;" parent="1" source="6Y3TLVguq3Cx2lFlfiIS-67" target="6Y3TLVguq3Cx2lFlfiIS-74" edge="1">
          <mxGeometry width="50" height="50" relative="1" as="geometry">
            <mxPoint x="-1654" y="809.29" as="sourcePoint" />
            <mxPoint x="-1540" y="800" as="targetPoint" />
            <Array as="points" />
          </mxGeometry>
        </mxCell>
        <mxCell id="6Y3TLVguq3Cx2lFlfiIS-74" value="Восстановление пароля" style="rounded=0;whiteSpace=wrap;html=1;" parent="1" vertex="1">
          <mxGeometry x="-1555" y="1000" width="210" height="54.5" as="geometry" />
        </mxCell>
        <mxCell id="6Y3TLVguq3Cx2lFlfiIS-80" value="[ссылка на восстановление пароля с валидным токеном]" style="text;html=1;strokeColor=none;fillColor=none;align=center;verticalAlign=middle;whiteSpace=wrap;rounded=0;" parent="1" vertex="1">
          <mxGeometry x="-1840" y="1090" width="292.5" height="30" as="geometry" />
        </mxCell>
        <mxCell id="6Y3TLVguq3Cx2lFlfiIS-82" value="" style="endArrow=classic;html=1;rounded=0;exitX=1;exitY=0.5;exitDx=0;exitDy=0;entryX=0.102;entryY=0.011;entryDx=0;entryDy=0;entryPerimeter=0;" parent="1" source="6Y3TLVguq3Cx2lFlfiIS-74" target="1lmrmKGu_N5sYzmFphA3-1" edge="1">
          <mxGeometry width="50" height="50" relative="1" as="geometry">
            <mxPoint x="-1530" y="1176" as="sourcePoint" />
            <mxPoint x="-1644" y="776" as="targetPoint" />
            <Array as="points">
              <mxPoint x="-1333" y="1027" />
            </Array>
          </mxGeometry>
        </mxCell>
        <mxCell id="6Y3TLVguq3Cx2lFlfiIS-83" value="Нажата кнопка &quot;Сменить пароль&quot;" style="text;html=1;strokeColor=none;fillColor=none;align=center;verticalAlign=middle;whiteSpace=wrap;rounded=0;" parent="1" vertex="1">
          <mxGeometry x="-1450" y="1080" width="112" height="30" as="geometry" />
        </mxCell>
        <mxCell id="6Y3TLVguq3Cx2lFlfiIS-13" value="Повторная попытка регистрации" style="rounded=0;whiteSpace=wrap;html=1;" parent="1" vertex="1">
          <mxGeometry x="-1180" y="1435" width="190" height="60" as="geometry" />
        </mxCell>
        <mxCell id="6Y3TLVguq3Cx2lFlfiIS-15" style="edgeStyle=orthogonalEdgeStyle;rounded=0;orthogonalLoop=1;jettySize=auto;html=1;exitX=0.5;exitY=1;exitDx=0;exitDy=0;" parent="1" edge="1">
          <mxGeometry relative="1" as="geometry">
            <mxPoint x="-506.5" y="1910" as="sourcePoint" />
            <mxPoint x="-506.5" y="1910" as="targetPoint" />
          </mxGeometry>
        </mxCell>
        <mxCell id="Fpg0scVaTkVkrr4jqa7s-8" value="Просмотр своего аккаунта" style="rounded=0;whiteSpace=wrap;html=1;" parent="1" vertex="1">
          <mxGeometry x="-522" y="1180" width="190" height="50" as="geometry" />
        </mxCell>
        <mxCell id="Fpg0scVaTkVkrr4jqa7s-10" style="edgeStyle=orthogonalEdgeStyle;rounded=0;orthogonalLoop=1;jettySize=auto;html=1;exitX=0.5;exitY=1;exitDx=0;exitDy=0;" parent="1" edge="1">
          <mxGeometry relative="1" as="geometry">
            <mxPoint x="493.5" y="1490" as="sourcePoint" />
            <mxPoint x="493.5" y="1490" as="targetPoint" />
          </mxGeometry>
        </mxCell>
        <mxCell id="1lmrmKGu_N5sYzmFphA3-1" value="Стартотвая страница" style="rounded=0;whiteSpace=wrap;html=1;" parent="1" vertex="1">
          <mxGeometry x="-1350" y="1155.5" width="170" height="50" as="geometry" />
        </mxCell>
        <mxCell id="1lmrmKGu_N5sYzmFphA3-159" value="Регистрация" style="rounded=0;whiteSpace=wrap;html=1;" parent="1" vertex="1">
          <mxGeometry x="-1140" y="1290" width="138" height="59.71" as="geometry" />
        </mxCell>
        <mxCell id="uIh4hpADiCV0mtv7l1ve-5" value="" style="endArrow=classic;html=1;rounded=0;jumpStyle=arc;jumpSize=17;exitX=0;exitY=0.75;exitDx=0;exitDy=0;entryX=0.25;entryY=1;entryDx=0;entryDy=0;" edge="1" parent="1" source="Fpg0scVaTkVkrr4jqa7s-8" target="1lmrmKGu_N5sYzmFphA3-1">
          <mxGeometry width="50" height="50" relative="1" as="geometry">
            <mxPoint x="-560" y="1220" as="sourcePoint" />
            <mxPoint x="-1361.111111111111" y="1600" as="targetPoint" />
            <Array as="points">
              <mxPoint x="-560" y="1218" />
              <mxPoint x="-560" y="1600" />
              <mxPoint x="-1310" y="1600" />
            </Array>
          </mxGeometry>
        </mxCell>
      </root>
    </mxGraphModel>
  </diagram>
</mxfile>
